Coordinates
version=1
nRows=12
nColumns=24
inDegrees=yes

Units are S.I. units (second, meters, Newtons, ...)
Angles are in degrees.

endheader
time	pelvis_tilt	pelvis_list	pelvis_rotation	pelvis_tx	pelvis_ty	pelvis_tz	hip_flexion_r	hip_adduction_r	hip_rotation_r	knee_angle_r	ankle_angle_r	subtalar_angle_r	mtp_angle_r	hip_flexion_l	hip_adduction_l	hip_rotation_l	knee_angle_l	ankle_angle_l	subtalar_angle_l	mtp_angle_l	lumbar_extension	lumbar_bending	lumbar_rotation
      1.15383333	     -8.65401494	      1.75775189	     -4.16131732	      0.17317436	      1.04345061	      0.28652015	     22.22372576	     -4.55281352	     -4.33894795	    -72.45986164	      1.81116879	     -6.38437265	      6.04867764	     25.34102378	      0.63993371	     -0.60671321	    -29.66348343	     16.93855796	      3.53560996	     -0.61797406	     -0.22870197	     -1.30790543	      1.39444724
      1.15800000	     -8.64163051	      1.66106418	     -4.23921595	      0.17856347	      1.04495665	      0.28663170	     22.82198754	     -4.37298312	     -4.44138804	    -72.56730130	      2.14927136	     -6.23136770	      5.98459332	     24.75363328	      0.54649330	     -0.61544126	    -29.18815625	     16.97969606	      3.50641441	     -0.62691746	     -0.24506072	     -1.19828688	      1.28397188
      1.16216667	     -8.64776110	      1.57443783	     -4.32349892	      0.18394822	      1.04642658	      0.28679126	     23.43346376	     -4.18984546	     -4.53181638	    -72.60605181	      2.50255205	     -6.04191206	      5.93228324	     24.18084259	      0.45569526	     -0.64143137	    -28.69913486	     16.99890433	      3.48062776	     -0.63647287	     -0.24857250	     -1.10927441	      1.18924692
      1.16633333	     -8.64042582	      1.46316701	     -4.41111357	      0.18930139	      1.04792138	      0.28697580	     24.01384896	     -3.96997577	     -4.62219130	    -72.55746006	      2.86032428	     -5.82128492	      5.91063419	     23.59494291	      0.33452069	     -0.68224531	    -28.21196303	     17.00132595	      3.46882400	     -0.64347171	     -0.28357793	     -0.99047653	      1.11477239
      1.17050000	     -8.62802359	      1.37180683	     -4.48583337	      0.19467251	      1.04938907	      0.28714279	     24.57597904	     -3.77919814	     -4.72525799	    -72.44610256	      3.24159822	     -5.49278575	      5.89496188	     22.99447789	      0.24216519	     -0.71106326	    -27.69987655	     17.00525466	      3.45554641	     -0.65093812	     -0.31296549	     -0.89250227	      1.02088135
      1.17466667	     -8.60449961	      1.26466821	     -4.55256756	      0.20003735	      1.05087651	      0.28731282	     25.10574464	     -3.57066081	     -4.84166904	    -72.25055847	      3.61188600	     -5.13339164	      5.88759427	     22.37944838	      0.13671774	     -0.72883403	    -27.18076195	     16.99996832	      3.44581462	     -0.65858899	     -0.36226295	     -0.77767838	      0.92596012
      1.17883333	     -8.55582022	      1.17594062	     -4.61068051	      0.20541476	      1.05239208	      0.28747212	     25.59375600	     -3.38983431	     -4.96697251	    -71.98679786	      3.99468164	     -4.71976866	      5.88480544	     21.72552050	      0.05851339	     -0.73810039	    -26.63063639	     16.99746211	      3.42089232	     -0.66790475	     -0.42730970	     -0.68588146	      0.81229897
      1.18300000	     -8.51339528	      1.07046325	     -4.66959736	      0.21077897	      1.05387779	      0.28765456	     26.07103072	     -3.18058772	     -5.08966477	    -71.64835552	      4.36889801	     -4.29923927	      5.89278352	     21.08096891	     -0.04135930	     -0.75531152	    -26.08531375	     16.96871715	      3.39855691	     -0.67754466	     -0.49806875	     -0.57340601	      0.71180941
      1.18716667	     -8.45981372	      0.96546656	     -4.72506408	      0.21613375	      1.05534958	      0.28783501	     26.52085424	     -2.97472855	     -5.21837481	    -71.24173022	      4.73949241	     -3.86094102	      5.91129392	     20.42292621	     -0.13912832	     -0.77420518	    -25.53215871	     16.93941347	      3.38175687	     -0.68644713	     -0.58521185	     -0.46349127	      0.61381011
      1.19133333	     -8.39442528	      0.85731478	     -4.77363625	      0.22149462	      1.05681145	      0.28801428	     26.93831304	     -2.76683545	     -5.35326103	    -70.76460744	      5.10425797	     -3.41405212	      5.93942975	     19.75037293	     -0.23768924	     -0.79166888	    -24.97347319	     16.90494272	      3.36917280	     -0.69504327	     -0.68693077	     -0.34845983	      0.51201593
      1.19550000	     -8.33174727	      0.74078076	     -4.81758047	      0.22684505	      1.05822049	      0.28819492	     27.34170310	     -2.55018665	     -5.49504682	    -70.22209363	      5.45628266	     -2.96751102	      5.97481005	     19.08409994	     -0.34579233	     -0.81179877	    -24.41970214	     16.87421151	      3.36507433	     -0.70240046	     -0.78757729	     -0.22458699	      0.41582308
      1.19966667	     -8.26195792	      0.63927290	     -4.85759076	      0.23219482	      1.05960141	      0.28837538	     27.72480298	     -2.35092721	     -5.63421035	    -69.62390583	      5.80573280	     -2.52579266	      6.02072851	     18.40588028	     -0.43435528	     -0.82575657	    -23.85033023	     16.82748599	      3.34767034	     -0.71019375	     -0.89923931	     -0.11467159	      0.30792605
